<svg xmlns="http://www.w3.org/2000/svg" width="461" height="113" viewBox="0 0 461 113">
  <defs>
    <linearGradient id="ramp-logo-tfl-a" x1="51.269%" x2="48.327%" y1="42.239%" y2="38.793%">
      <stop offset="0%" stop-color="#009DC9"/>
      <stop offset="4.29%" stop-color="#004F97"/>
      <stop offset="100%" stop-color="#004F97"/>
    </linearGradient>
  </defs>
  <g fill="none" fill-rule="evenodd" transform="translate(.067 .598)">
    <path fill="url(#ramp-logo-tfl-a)" d="M1.34254557,4.8176601 C1.34254557,2.60781864 3.13567496,0.816388188 5.34985587,0.816388188 L84.4264685,0.816388188 L84.4264685,79.8930008 C84.4264685,82.1061772 82.6333391,83.9003111 80.4191582,83.9003111 L1.34254557,83.9003111 L81.9586292,3.28422748 L1.34254557,57.8802362 L1.34254557,4.8176601 Z"/>
    <path fill="#1860A1" d="M273.180757,68.3711142 L273.180757,3.36269174 C273.180757,2.48711659 273.499143,1.73094939 274.135925,1.09416746 C274.772707,0.457385525 275.528874,0.138999335 276.404449,0.138999335 L298.25392,0.138999335 C300.482657,0.138999335 302.193983,1.21355273 303.387949,3.36269174 L319.028827,32.0177354 L334.669705,3.36269174 C335.863671,1.21355273 337.574997,0.138999335 339.803733,0.138999335 L361.653204,0.138999335 C362.528779,0.138999335 363.284946,0.457385525 363.921728,1.09416746 C364.55851,1.73094939 364.876896,2.48711659 364.876896,3.36269174 L364.876896,80.4925175 C364.876896,81.3680927 364.55851,82.1242599 363.921728,82.7610418 C363.284946,83.3978238 362.528779,83.7162099 361.653204,83.7162099 L340.042525,83.7162099 C339.16695,83.7162099 338.410783,83.3978238 337.774001,82.7610418 C337.137219,82.1242599 336.818833,81.3680927 336.818833,80.4925175 L336.818833,43.4797528 L328.102924,60.672779 C327.625337,61.6279519 326.908968,62.36422 325.953796,62.8816053 C324.998623,63.3989906 324.043464,63.6576794 323.088291,63.6576794 L314.969362,63.6576794 C313.616201,63.6576794 312.501849,63.2994949 311.626274,62.5831153 C310.750699,61.8667356 310.193523,61.2299632 309.95473,60.672779 L301.23882,43.4797528 L301.23882,80.4925175 C301.23882,81.3680927 300.920434,82.1242599 300.283652,82.7610418 C299.64687,83.3978238 298.890703,83.7162099 298.015128,83.7162099 L276.404449,83.7162099 C276.103539,83.7162099 275.816733,83.6786054 275.544028,83.6033959 C275.299824,83.6786054 275.041155,83.7162099 274.768022,83.7162099 L252.202175,83.7162099 C249.655047,83.7162099 247.864125,82.3630686 246.829354,79.6567454 L243.844454,71.2990244 L214.711826,71.2990244 L211.726926,79.6567454 C210.692155,82.3630686 208.901233,83.7162099 206.354105,83.7162099 L183.823376,83.7162099 L156.72048,83.7162099 C154.332548,83.7162099 152.66102,82.7212531 151.705847,80.7313096 L141.198998,57.0908986 L131.169733,57.0908986 L131.169733,80.4925175 C131.169733,81.3680927 130.851347,82.1242599 130.214565,82.7610418 C129.577783,83.3978238 128.821616,83.7162099 127.94604,83.7162099 L102.156501,83.7162099 C101.280926,83.7162099 100.524759,83.3978238 99.8879768,82.7610418 C99.2511949,82.1242599 98.9328087,81.3680927 98.9328087,80.4925175 L98.9328087,3.36269174 C98.9328087,2.48711659 99.2511949,1.73094939 99.8879768,1.09416746 C100.524759,0.457385525 101.280926,0.138999335 102.156501,0.138999335 L148.601551,0.138999335 C159.506442,0.138999335 168.142667,2.72588713 174.510486,7.89974032 C180.878306,13.0735935 184.062168,20.117888 184.062168,29.032835 C184.062168,39.8581278 179.883349,47.6983878 171.525586,52.55385 L183.275803,74.5258004 L207.309273,4.07906784 C208.025653,1.45234237 209.816575,0.138999335 212.682094,0.138999335 L245.874186,0.138999335 C248.739705,0.138999335 250.530627,1.45234237 251.247007,4.07906784 L273.180757,68.3711142 Z M376.661985,0.138999335 L421.316095,0.138999335 C432.618974,0.138999335 441.573586,2.88508022 448.180198,8.37732438 C454.786811,13.8695685 458.090067,20.913863 458.090067,29.5104191 C458.090067,38.1069751 455.304188,44.9323791 449.732346,49.9868357 C444.160504,55.0412922 434.688515,57.5684826 421.316095,57.5684826 L405.555821,57.5684826 L405.555821,80.4925175 C405.555821,81.3680927 405.237434,82.1242599 404.600653,82.7610418 C403.963871,83.3978238 403.207703,83.7162099 402.332128,83.7162099 L376.661985,83.7162099 C375.78641,83.7162099 375.030243,83.3978238 374.393461,82.7610418 C373.756679,82.1242599 373.438293,81.3680927 373.438293,80.4925175 L373.438293,3.36269174 C373.438293,2.48711659 373.756679,1.73094939 374.393461,1.09416746 C375.030243,0.457385525 375.78641,0.138999335 376.661985,0.138999335 Z M131.169733,22.3466582 L131.169733,35.0026358 L146.094235,35.0026358 C147.845385,35.0026358 149.198526,34.4255608 150.153699,33.2713935 C151.108872,32.1172263 151.586451,30.6645893 151.586451,28.913439 C151.586451,27.1622887 151.128771,25.6300551 150.213397,24.3166924 C149.298023,23.0033297 147.924983,22.3466582 146.094235,22.3466582 L131.169733,22.3466582 Z M237.755257,48.0168014 L229.27814,23.1824303 L220.801023,48.0168014 L237.755257,48.0168014 Z M405.675217,22.3466582 L405.675217,35.4802198 L420.838511,35.4802198 C422.669259,35.4802198 424.161694,34.923044 425.315861,33.8086756 C426.470028,32.6943072 427.047103,31.1421746 427.047103,29.152231 C427.047103,27.1622875 426.489928,25.5305583 425.375559,24.2569944 C424.261191,22.9834305 422.748856,22.3466582 420.838511,22.3466582 L405.675217,22.3466582 Z"/>
    <path fill="#4A4A4A" d="M140.291947,111.344572 L140.291947,98.5441172 L144.709254,98.5441172 C145.547278,98.5441172 146.262834,98.6237873 146.855942,98.7831298 C147.44905,98.9424724 147.935923,99.1696797 148.316575,99.4647585 C148.697226,99.7598373 148.976072,100.116877 149.153119,100.535889 C149.330166,100.954901 149.418689,101.42702 149.418689,101.95226 C149.418689,102.253241 149.374427,102.540938 149.285904,102.815362 C149.19738,103.089785 149.06017,103.3465 148.874271,103.585513 C148.688371,103.824527 148.452312,104.041407 148.166085,104.236159 C147.879859,104.430911 147.539048,104.596153 147.143642,104.731889 C148.902312,105.127294 149.781634,106.077434 149.781634,107.582336 C149.781634,108.125281 149.678358,108.626907 149.471802,109.08723 C149.265247,109.547553 148.964271,109.944428 148.568866,110.277867 C148.17346,110.611306 147.686587,110.872447 147.108233,111.061298 C146.529879,111.250148 145.868912,111.344572 145.125313,111.344572 L140.291947,111.344572 Z M142.673221,105.732201 L142.673221,109.485585 L145.089904,109.485585 C145.532522,109.485585 145.902841,109.432471 146.20087,109.326243 C146.4989,109.220014 146.73791,109.078379 146.917908,108.901331 C147.097906,108.724284 147.227739,108.517732 147.30741,108.281669 C147.387081,108.045606 147.426917,107.794793 147.426917,107.529222 C147.426917,107.251848 147.382655,107.00251 147.294132,106.781201 C147.205608,106.559892 147.066923,106.371044 146.878073,106.214652 C146.689222,106.058261 146.447261,105.938755 146.152182,105.856133 C145.857104,105.773511 145.500064,105.732201 145.081052,105.732201 L142.673221,105.732201 Z M142.673221,104.085669 L144.57647,104.085669 C145.384985,104.085669 145.99874,103.938132 146.417752,103.643053 C146.836764,103.347975 147.046267,102.878806 147.046267,102.235535 C147.046267,101.568656 146.857419,101.093587 146.479718,100.810311 C146.102017,100.527035 145.511869,100.3854 144.709254,100.3854 L142.673221,100.3854 L142.673221,104.085669 Z M161.944721,106.369568 L161.944721,111.344572 L159.563447,111.344572 L159.563447,106.369568 L154.898275,98.5441172 L156.996274,98.5441172 C157.20283,98.5441172 157.366596,98.5942798 157.487578,98.6946066 C157.60856,98.7949334 157.710361,98.9218154 157.792983,99.0752564 L160.138848,103.350927 C160.274584,103.604695 160.392614,103.84518 160.492941,104.072391 C160.593267,104.299602 160.684741,104.522383 160.767363,104.740741 C160.844083,104.516481 160.93113,104.290749 161.028506,104.063539 C161.125882,103.836328 161.242436,103.598793 161.378173,103.350927 L163.706333,99.0752564 C163.77125,98.9454217 163.868625,98.8244412 163.998459,98.7123113 C164.128294,98.6001813 164.293536,98.5441172 164.494189,98.5441172 L166.601041,98.5441172 L161.944721,106.369568 Z M189.130196,98.5441172 L189.130196,100.50048 L185.279436,100.50048 L185.279436,111.344572 L182.898162,111.344572 L182.898162,100.50048 L179.029699,100.50048 L179.029699,98.5441172 L189.130196,98.5441172 Z M197.531047,106.343011 L197.531047,111.344572 L195.149773,111.344572 L195.149773,98.5441172 L199.053646,98.5441172 C199.927079,98.5441172 200.675093,98.6341149 201.297709,98.8141129 C201.920326,98.994111 202.430804,99.2463996 202.829161,99.5709863 C203.227517,99.895573 203.519641,100.283596 203.70554,100.735066 C203.89144,101.186537 203.984388,101.683737 203.984388,102.226682 C203.984388,102.657497 203.920947,103.0647 203.794063,103.448302 C203.66718,103.831905 203.484233,104.180093 203.24522,104.492876 C203.006206,104.80566 202.711131,105.080079 202.359988,105.316142 C202.008844,105.552205 201.609018,105.741053 201.160498,105.88269 C201.461479,106.053836 201.721144,106.298748 201.939502,106.617433 L205.144042,111.344572 L203.001781,111.344572 C202.795226,111.344572 202.619656,111.303261 202.475068,111.220639 C202.330479,111.138017 202.208023,111.019987 202.107697,110.866546 L199.416591,106.767922 C199.316264,106.614481 199.205612,106.505304 199.084629,106.440387 C198.963647,106.375469 198.785127,106.343011 198.549064,106.343011 L197.531047,106.343011 Z M197.531047,104.634513 L199.018237,104.634513 C199.466757,104.634513 199.85773,104.578449 200.191169,104.466319 C200.524608,104.354189 200.799027,104.199275 201.014435,104.001572 C201.229843,103.80387 201.390658,103.569285 201.496886,103.297813 C201.603115,103.02634 201.656228,102.728315 201.656228,102.403729 C201.656228,101.754555 201.442299,101.25588 201.014435,100.907687 C200.586571,100.559494 199.932981,100.3854 199.053646,100.3854 L197.531047,100.3854 L197.531047,104.634513 Z M213.775054,111.344572 L211.384928,111.344572 L211.384928,98.5441172 L213.775054,98.5441172 L213.775054,111.344572 Z M229.151534,98.5441172 L229.151534,100.438514 L223.477197,100.438514 L223.477197,104.227307 L228.266302,104.227307 L228.266302,106.130555 L223.477197,106.130555 L223.477197,111.344572 L221.078218,111.344572 L221.078218,98.5441172 L229.151534,98.5441172 Z M238.127786,111.344572 L235.73766,111.344572 L235.73766,98.5441172 L238.127786,98.5441172 L238.127786,111.344572 Z M246.679127,98.5441172 C246.785356,98.5441172 246.873878,98.5485433 246.944697,98.5573957 C247.015516,98.566248 247.078957,98.5839525 247.135022,98.6105096 C247.191087,98.6370667 247.245675,98.6754264 247.29879,98.7255898 C247.351904,98.7757531 247.410919,98.8421449 247.475836,98.9247669 L254.194747,107.48496 C254.17114,107.278405 254.154911,107.076279 254.146059,106.878576 C254.137207,106.680874 254.132781,106.496452 254.132781,106.325306 L254.132781,98.5441172 L256.23078,98.5441172 L256.23078,111.344572 L255.000308,111.344572 C254.811457,111.344572 254.655068,111.315064 254.531135,111.256049 C254.407202,111.197033 254.286221,111.090806 254.16819,110.937365 L247.475836,102.412581 C247.493541,102.601431 247.506819,102.788804 247.515671,102.974703 C247.524524,103.160603 247.52895,103.330271 247.52895,103.483712 L247.52895,111.344572 L245.43095,111.344572 L245.43095,98.5441172 L246.679127,98.5441172 Z M273.466247,109.379357 L278.59174,109.379357 L278.59174,111.344572 L271.084973,111.344572 L271.084973,98.5441172 L273.466247,98.5441172 L273.466247,109.379357 Z M295.91573,111.344572 L294.074448,111.344572 C293.867893,111.344572 293.698225,111.292934 293.56544,111.189656 C293.432654,111.086379 293.336755,110.958021 293.277739,110.80458 L292.321689,108.193146 L287.019149,108.193146 L286.063098,110.80458 C286.015886,110.940316 285.922937,111.064248 285.78425,111.176378 C285.645563,111.288508 285.475896,111.344572 285.275242,111.344572 L283.425107,111.344572 L288.453225,98.5441172 L290.887613,98.5441172 L295.91573,111.344572 Z M287.629959,106.511205 L291.710879,106.511205 L290.15287,102.253239 C290.082051,102.064389 290.003857,101.841608 289.918284,101.584889 C289.832711,101.328171 289.748615,101.049325 289.665993,100.748345 C289.583371,101.049325 289.502225,101.329646 289.422554,101.589315 C289.342883,101.848985 289.264688,102.076192 289.187967,102.270944 L287.629959,106.511205 Z M301.660886,111.344572 L301.660886,98.5441172 L306.078194,98.5441172 C306.916217,98.5441172 307.631773,98.6237873 308.224881,98.7831298 C308.81799,98.9424724 309.304862,99.1696797 309.685514,99.4647585 C310.066166,99.7598373 310.345011,100.116877 310.522058,100.535889 C310.699106,100.954901 310.787628,101.42702 310.787628,101.95226 C310.787628,102.253241 310.743367,102.540938 310.654843,102.815362 C310.566319,103.089785 310.42911,103.3465 310.24321,103.585513 C310.057311,103.824527 309.821251,104.041407 309.535025,104.236159 C309.248798,104.430911 308.907987,104.596153 308.512582,104.731889 C310.271251,105.127294 311.150573,106.077434 311.150573,107.582336 C311.150573,108.125281 311.047297,108.626907 310.840742,109.08723 C310.634187,109.547553 310.333211,109.944428 309.937805,110.277867 C309.5424,110.611306 309.055527,110.872447 308.477172,111.061298 C307.898818,111.250148 307.237851,111.344572 306.494253,111.344572 L301.660886,111.344572 Z M304.04216,105.732201 L304.04216,109.485585 L306.458843,109.485585 C306.901462,109.485585 307.27178,109.432471 307.56981,109.326243 C307.867839,109.220014 308.106849,109.078379 308.286848,108.901331 C308.466846,108.724284 308.596678,108.517732 308.67635,108.281669 C308.756021,108.045606 308.795856,107.794793 308.795856,107.529222 C308.795856,107.251848 308.751595,107.00251 308.663071,106.781201 C308.574547,106.559892 308.435863,106.371044 308.247012,106.214652 C308.058162,106.058261 307.816201,105.938755 307.521122,105.856133 C307.226043,105.773511 306.869003,105.732201 306.449991,105.732201 L304.04216,105.732201 Z M304.04216,104.085669 L305.945409,104.085669 C306.753925,104.085669 307.36768,103.938132 307.786691,103.643053 C308.205703,103.347975 308.415206,102.878806 308.415206,102.235535 C308.415206,101.568656 308.226359,101.093587 307.848658,100.810311 C307.470957,100.527035 306.880808,100.3854 306.078194,100.3854 L304.04216,100.3854 L304.04216,104.085669 Z M324.482167,100.872277 C324.417249,101.002112 324.342005,101.093585 324.256433,101.146699 C324.17086,101.199813 324.069059,101.22637 323.951028,101.22637 C323.832996,101.22637 323.700213,101.180634 323.552673,101.089159 C323.405134,100.997685 323.23104,100.895884 323.030386,100.783754 C322.829733,100.671624 322.595149,100.569824 322.326627,100.478349 C322.058105,100.386875 321.7409,100.341138 321.375002,100.341138 C321.044514,100.341138 320.756817,100.380973 320.511901,100.460644 C320.266986,100.540316 320.060434,100.650969 319.892239,100.792606 C319.724044,100.934244 319.598637,101.103912 319.516015,101.301615 C319.433393,101.499318 319.392083,101.716197 319.392083,101.95226 C319.392083,102.253241 319.476179,102.504054 319.644374,102.704708 C319.812569,102.905361 320.03535,103.076504 320.312724,103.218142 C320.590098,103.35978 320.905828,103.486662 321.259922,103.598792 C321.614017,103.710922 321.975483,103.830427 322.344331,103.957311 C322.71318,104.084195 323.074646,104.231732 323.428741,104.399927 C323.782835,104.568122 324.098565,104.780575 324.375939,105.037294 C324.653313,105.294012 324.876094,105.608267 325.044289,105.980066 C325.212484,106.351865 325.29658,106.803329 325.29658,107.334471 C325.29658,107.912825 325.19773,108.454287 325.000027,108.958872 C324.802325,109.463456 324.513152,109.903117 324.1325,110.277867 C323.751848,110.652617 323.287106,110.947692 322.73826,111.163099 C322.189413,111.378507 321.560905,111.486209 320.852716,111.486209 C320.445507,111.486209 320.044206,111.446374 319.6488,111.366703 C319.253394,111.287031 318.874224,111.173428 318.511277,111.025888 C318.14833,110.878349 317.808995,110.701304 317.49326,110.494749 C317.177526,110.288194 316.89573,110.058036 316.647864,109.804268 L317.338345,108.662319 C317.403262,108.579697 317.481457,108.510354 317.572931,108.454289 C317.664406,108.398224 317.766206,108.370192 317.878336,108.370192 C318.025876,108.370192 318.185216,108.430683 318.356361,108.551665 C318.527507,108.672647 318.729633,108.806906 318.962745,108.954445 C319.195858,109.101985 319.470277,109.236244 319.786011,109.357226 C320.101745,109.478208 320.480916,109.538699 320.923534,109.538699 C321.602215,109.538699 322.127448,109.377883 322.499247,109.056247 C322.871046,108.734611 323.056943,108.27282 323.056943,107.670859 C323.056943,107.334469 322.972847,107.06005 322.804652,106.847593 C322.636457,106.635137 322.413676,106.456617 322.136302,106.312028 C321.858928,106.167439 321.543198,106.044983 321.189104,105.944657 C320.835009,105.84433 320.475018,105.735152 320.109121,105.617121 C319.743223,105.499089 319.383232,105.357454 319.029138,105.192209 C318.675043,105.026965 318.359314,104.811561 318.081939,104.54599 C317.804565,104.280419 317.581784,103.94846 317.413589,103.550104 C317.245394,103.151748 317.161298,102.660449 317.161298,102.076193 C317.161298,101.609968 317.254247,101.155554 317.440146,100.712936 C317.626046,100.270317 317.897514,99.8778684 318.25456,99.535577 C318.611605,99.1932856 319.049791,98.9188664 319.569129,98.7123113 C320.088468,98.5057561 320.681567,98.4024801 321.348446,98.4024801 C322.103847,98.4024801 322.800223,98.5205098 323.437593,98.7565729 C324.074963,98.9926359 324.6179,99.3231192 325.06642,99.7480327 L324.482167,100.872277 Z"/>
    <path stroke="#009DC9" stroke-linecap="square" stroke-width="2" d="M113.93341 105.689748L1.34254557 105.689748M459 105.689748L346.409136 105.689748"/>
  </g>
</svg>
